<?xml version="1.0" encoding="utf-8"?>
<!-- Generator: Adobe Illustrator 16.0.0, SVG Export Plug-In . SVG Version: 6.00 Build 0)  -->
<!DOCTYPE svg PUBLIC "-//W3C//DTD SVG 1.1//EN" "http://www.w3.org/Graphics/SVG/1.1/DTD/svg11.dtd">
<svg version="1.1" id="Layer_1" xmlns="http://www.w3.org/2000/svg" xmlns:xlink="http://www.w3.org/1999/xlink" x="0px" y="0px"
	 width="400px" height="300px" viewBox="0 0 400 300" enable-background="new 0 0 400 300" xml:space="preserve">
<g>
	<path fill="#333333" d="M52.57,69.859C23.537,69.859,0,93.396,0,122.43C0,151.465,23.537,175,52.57,175s52.57-23.535,52.57-52.57
		C105.141,93.396,81.604,69.859,52.57,69.859z M52.57,169.743c-26.088,0-47.313-21.226-47.313-47.313S26.482,75.115,52.57,75.115
		s47.313,21.227,47.313,47.314S78.658,169.743,52.57,169.743z"/>
	<circle fill="#333333" cx="23.656" cy="109.287" r="2.628"/>
	<path fill="#333333" d="M81.484,119.801c-1.452,0-2.629,1.177-2.629,2.629c0,14.493-11.791,26.285-26.285,26.285
		s-26.285-11.792-26.285-26.285c0-1.452-1.177-2.629-2.629-2.629c-1.451,0-2.628,1.177-2.628,2.629
		c0,17.394,14.148,31.542,31.542,31.542c17.392,0,31.542-14.148,31.542-31.542C84.112,120.978,82.936,119.801,81.484,119.801z"/>
	<path fill="#333333" d="M85.52,99.994c-1.027-1.028-2.69-1.026-3.717,0l-7.43,7.433c-0.479,0.476-0.774,1.133-0.774,1.86
		c0,1.451,1.177,2.628,2.628,2.628h10.515c1.452,0,2.629-1.177,2.629-2.628c0-1.452-1.177-2.629-2.629-2.629h-4.169l2.947-2.946
		C86.546,102.685,86.546,101.021,85.52,99.994z"/>
</g>
<g id="Layer_1_1_">
	<g>
		<path fill="#333333" d="M347.358,69.859c-29.072,0-52.641,23.568-52.641,52.641s23.568,52.641,52.641,52.641
			S400,151.572,400,122.5C400,93.427,376.431,69.859,347.358,69.859z M347.358,169.875c-26.123,0-47.375-21.252-47.375-47.375
			s21.252-47.377,47.375-47.377s47.377,21.254,47.377,47.377S373.481,169.875,347.358,169.875z"/>
		<circle fill="#333333" cx="317.405" cy="109.339" r="2.632"/>
		<circle fill="#333333" cx="375.311" cy="109.339" r="2.632"/>
		<path fill="#333333" d="M375.311,119.867c-1.454,0-2.632,1.18-2.632,2.633c0,14.513-11.809,26.32-26.32,26.32
			c-14.513,0-26.32-11.809-26.32-26.32c0-1.454-1.178-2.633-2.631-2.633c-1.455,0-2.633,1.18-2.633,2.633
			c0,17.416,14.17,31.584,31.584,31.584c17.418,0,31.586-14.168,31.586-31.584C377.944,121.047,376.765,119.867,375.311,119.867z"/>
	</g>
</g>
<g>
	<path fill="#69AEBD" d="M196,83v22.533c0,2.411-0.43,6.467-3.281,6.467h-48.181c-2.852,0-4.538-4.056-4.538-6.467V41.468
		c0-2.413,1.686-2.468,4.538-2.468H170"/>
	<path fill="#D0583A" d="M221.312,36.843c1.615-0.226,3.264-0.343,4.938-0.343c20.021,0,36.249,16.686,36.249,37.271
		c0,20.583-16.229,37.269-36.249,37.269c-16.564,0-30.534-11.423-34.863-27.024"/>
	<text transform="matrix(1 0 0 1 145.7231 66.4438)"><tspan x="0" y="0" font-family="'FVAlmelo'" font-size="11.3659">keep calm</tspan><tspan x="14.531" y="13.639" font-family="'FVAlmelo'" font-size="11.3659">and</tspan><tspan x="3.921" y="27.278" font-family="'FVAlmelo'" font-size="11.3659">troll on</tspan></text>
	<text transform="matrix(1 0 0 1 208.2637 65.8589)"><tspan x="0" y="0" font-family="'FVAlmelo'" font-size="19">duke</tspan><tspan x="-1.471" y="17" font-family="'FVAlmelo'" font-size="15">trolls</tspan><tspan x="-0.207" y="29" font-family="'FVAlmelo'" font-size="8">we go hard</tspan></text>
	<path fill="#F1C40F" d="M182.194-0.394c1.898,5.596,6.978,9.406,12.808,9.422c5.831-0.016,10.909-3.826,12.805-9.422
		c5.422,1.672,31.172,9.625,32.967,10.196c0.291,0.118,0.891,0.64,1.285,1.575c0.146,0.336,0.32,0.881,0.32,1.511
		c0,0.375-0.062,0.782-0.234,1.19l-0.023,0.056l-0.02,0.062c-1.488,4.588-3.344,11.582-4.045,14.213l-0.281,1.057
		c-0.08,0.291-0.881,0.877-1.895,0.775l-14.539-1.496v51.994c0,1.041-0.602,3.002-2.879,3.002h-46.922
		c-2.274,0-2.878-1.961-2.878-3.002V28.747l-14.538,1.494c-1.013,0.103-1.817-0.484-1.897-0.774l-0.278-1.048
		c-0.702-2.635-2.554-9.629-4.046-14.221l-0.022-0.062l-0.021-0.057c-0.172-0.407-0.238-0.813-0.238-1.189
		c0-0.63,0.181-1.175,0.326-1.511c0.395-0.935,0.99-1.457,1.279-1.575C151.024,9.231,176.776,1.28,182.194-0.394z"/>
</g>
<g>
	<g>
		<path fill="none" stroke="#333333" stroke-width="3" stroke-miterlimit="10" d="M249.258,28.669
			c18.209,9.288,29.961,22.154,36.988,32.203"/>
		<g>
			<polygon fill="#333333" points="272.164,59.311 284.141,57.811 291.375,48.148 295,76.5 			"/>
		</g>
	</g>
</g>
<path fill="none" stroke="#333333" stroke-width="3" stroke-miterlimit="10" d="M100,76.5c0,0,8.748-29.995,41.268-47.569"/>
<text transform="matrix(1 0 0 1 176.1162 38.6621)"><tspan x="0" y="0" font-family="'FVAlmelo'" font-size="19.5722">duke</tspan><tspan x="-0.895" y="16" font-family="'FVAlmelo'" font-size="14.967">trolls</tspan><tspan x="0.081" y="28.434" font-family="'FVAlmelo'" font-size="10.3617">r Awsum</tspan></text>
</svg>
