<?xml version="1.0" encoding="utf-8"?>
<!-- Generator: Adobe Illustrator 16.0.0, SVG Export Plug-In . SVG Version: 6.00 Build 0)  -->
<!DOCTYPE svg PUBLIC "-//W3C//DTD SVG 1.1//EN" "http://www.w3.org/Graphics/SVG/1.1/DTD/svg11.dtd">
<svg version="1.1" id="Layer_1" xmlns="http://www.w3.org/2000/svg" xmlns:xlink="http://www.w3.org/1999/xlink" x="0px" y="0px"
	 width="150px" height="150px" viewBox="-25 -25 150 150" enable-background="new -25 -25 150 150" xml:space="preserve">
<circle cx="20.799" cy="44.979" r="2.601"/>
<circle cx="78.016" cy="44.979" r="2.601"/>
<path d="M101.423,67.984c0-28.728-23.289-52.016-52.016-52.016S-2.608,39.257-2.608,67.984C-2.608,96.711,20.681,120,49.407,120
	S101.423,96.711,101.423,67.984z M49.407,114.799c-25.812,0-46.814-21.002-46.814-46.814S23.595,21.17,49.407,21.17
	s46.814,21.001,46.814,46.814S75.22,114.799,49.407,114.799z"/>
<path d="M78.016,55.383H20.799c-1.437,0-2.601,1.164-2.601,2.602c0,35.305,14,47.209,31.209,47.209s31.209-11.904,31.209-47.209
	C80.616,56.547,79.452,55.383,78.016,55.383z M49.407,99.992c-13.463,0-25.878-10.624-25.878-39.408h51.755
	C75.284,89.368,62.87,99.992,49.407,99.992z"/>
<g>
	<path fill="#606C26" d="M92.41,85.596h12.437l1.138-1.623c0.928-1.399,1.951-2.74,2.837-4.168c0.419-0.68,1.207-1.789,0.897-2.648
		c-0.222-0.613-0.788-0.823-1.396-0.93c-0.44-0.076-2.685-0.645-3.59-0.459c-0.804,0.164-1.546,0.547-2.317,0.814
		c-1.086,0.378-2.288,0.694-3.48,0.629c-1.029-0.056-2.2-0.188-3.17-0.538c-0.805-0.292-1.582-0.72-2.434-0.866
		c-0.734-0.125-3.412,0.246-3.95,0.338c-3.792,0.652-1.035,3.537,1.891,7.828L92.41,85.596z"/>
	<path fill="#606C26" d="M119.864,104.611c-3.188-7.347-8.962-15.359-15.011-19.225H92.306
		c-6.047,3.867-11.818,11.879-15.007,19.225c-3.196,7.363,0.638,14.6,7.943,14.6h26.678
		C119.227,119.211,123.061,111.975,119.864,104.611z"/>
	<path fill="#F2ECEA" d="M99.748,111.281v2.982h-2.375v-2.81c-1.823-0.058-3.647-0.578-4.69-1.272l0.782-2.723
		c1.129,0.666,2.75,1.274,4.517,1.274c1.825,0,3.069-0.897,3.069-2.287c0-1.304-1.013-2.144-3.156-2.925
		c-3.041-1.1-5.009-2.489-5.009-5.182c0-2.49,1.736-4.401,4.661-4.922V90.58h2.375v2.692c1.822,0.058,3.067,0.491,3.994,0.956
		l-0.782,2.662c-0.694-0.318-1.967-0.983-3.937-0.983c-2.026,0-2.751,1.042-2.751,2.026c0,1.188,1.043,1.853,3.504,2.838
		c3.242,1.216,4.689,2.779,4.689,5.355C104.64,108.589,102.933,110.76,99.748,111.281z"/>
</g>
<g>
	<path fill="#606C26" d="M-4.849,85.596H7.587l1.138-1.623c0.928-1.399,1.951-2.74,2.837-4.168c0.419-0.68,1.207-1.789,0.897-2.648
		c-0.222-0.613-0.788-0.823-1.396-0.93c-0.44-0.076-2.685-0.645-3.59-0.459c-0.804,0.164-1.546,0.547-2.317,0.814
		c-1.086,0.378-2.288,0.694-3.48,0.629c-1.029-0.056-2.2-0.188-3.17-0.538c-0.805-0.292-1.582-0.72-2.434-0.866
		c-0.734-0.125-3.412,0.246-3.95,0.338c-3.792,0.652-1.035,3.537,1.891,7.828L-4.849,85.596z"/>
	<path fill="#606C26" d="M22.605,104.611c-3.188-7.347-8.962-15.359-15.011-19.225H-4.954C-11,89.254-16.772,97.266-19.96,104.611
		c-3.196,7.363,0.638,14.6,7.943,14.6h26.678C21.967,119.211,25.801,111.975,22.605,104.611z"/>
	<path fill="#F2ECEA" d="M2.489,111.281v2.982H0.114v-2.81c-1.823-0.058-3.647-0.578-4.69-1.272l0.782-2.723
		c1.129,0.666,2.75,1.274,4.517,1.274c1.825,0,3.069-0.897,3.069-2.287c0-1.304-1.013-2.144-3.156-2.925
		c-3.041-1.1-5.009-2.489-5.009-5.182c0-2.49,1.736-4.401,4.661-4.922V90.58h2.375v2.692c1.822,0.058,3.067,0.491,3.994,0.956
		l-0.782,2.662c-0.694-0.318-1.967-0.983-3.937-0.983c-2.026,0-2.751,1.042-2.751,2.026c0,1.188,1.043,1.853,3.504,2.838
		c3.242,1.216,4.689,2.779,4.689,5.355C7.38,108.589,5.673,110.76,2.489,111.281z"/>
</g>
</svg>
