<?xml version="1.0" encoding="utf-8"?>
<!-- Generator: Adobe Illustrator 16.0.0, SVG Export Plug-In . SVG Version: 6.00 Build 0)  -->
<!DOCTYPE svg PUBLIC "-//W3C//DTD SVG 1.1//EN" "http://www.w3.org/Graphics/SVG/1.1/DTD/svg11.dtd">
<svg version="1.1" id="Layer_1" xmlns="http://www.w3.org/2000/svg" xmlns:xlink="http://www.w3.org/1999/xlink" x="0px" y="0px"
	 width="150px" height="150px" viewBox="-25 -25 150 150" enable-background="new -25 -25 150 150" xml:space="preserve">
<g>
	<path fill="#606C26" d="M49.483,41.113c0.773-0.217,1.498-0.487,2.181-0.804c0.684-0.32,1.254-0.698,1.703-1.133
		c0.73-0.708,0.854-1.235,0.355-1.578c-0.494-0.345-1.623-0.65-3.396-0.915l-5.44,5.164c0.67-0.035,1.413-0.112,2.224-0.23
		C47.917,41.498,48.71,41.332,49.483,41.113z"/>
	<path fill="#606C26" d="M51.766,32.468l4.66-4.361c-0.594,0.019-1.213,0.08-1.869,0.185c-0.646,0.104-1.303,0.257-1.953,0.454
		c-0.656,0.199-1.256,0.437-1.816,0.719c-0.558,0.28-1.039,0.608-1.439,0.978c-0.632,0.583-0.755,1.022-0.372,1.329
		C49.371,32.073,50.299,32.307,51.766,32.468z"/>
	<path fill="#606C26" d="M84.973,53.786c0.488,0,0.953-0.193,1.297-0.534l33.162-32.339c0.521-0.522,0.68-1.309,0.395-1.994
		c-0.279-0.684-0.949-1.13-1.688-1.13H16.277c-0.441,0-0.867,0.159-1.201,0.449l-34.414,32.338c-0.575,0.5-0.78,1.307-0.513,2.019
		c0.267,0.718,0.952,1.191,1.715,1.191H84.973z M32.388,38.427l7.475-0.059c-1.131,1.005-1.461,1.795-1,2.373
		c0.467,0.581,1.422,0.952,2.876,1.11l5.976-5.589c-0.139-0.035-0.334-0.069-0.582-0.111c-0.257-0.041-0.537-0.076-0.848-0.11
		c-1.107-0.159-2.168-0.35-3.173-0.572c-1.003-0.22-1.788-0.518-2.352-0.899c-0.571-0.376-0.829-0.852-0.777-1.424
		c0.057-0.572,0.565-1.293,1.532-2.162c0.986-0.887,2.193-1.679,3.627-2.376c1.431-0.701,2.955-1.299,4.578-1.798
		c1.621-0.501,3.299-0.905,5.033-1.211c1.729-0.306,3.406-0.513,5.021-0.623l2.193-2.055l3.074-0.123l-2.188,2.067
		c1.461,0.036,2.742,0.162,3.836,0.375c1.104,0.219,1.932,0.543,2.488,0.974c0.566,0.432,0.818,0.987,0.77,1.666
		c-0.049,0.68-0.506,1.494-1.379,2.448l-7.441,0.175c0.725-0.724,0.928-1.328,0.623-1.811c-0.309-0.48-1.049-0.703-2.234-0.67
		l-5.039,4.762c0.363,0.045,0.73,0.09,1.113,0.135c0.381,0.046,0.771,0.103,1.188,0.166c2.215,0.313,3.738,0.729,4.586,1.242
		c0.846,0.519,1.301,1.068,1.369,1.646c0.068,0.58-0.131,1.163-0.605,1.751c-0.48,0.589-0.951,1.111-1.416,1.574
		c-0.414,0.403-1.123,0.914-2.141,1.531c-1.008,0.616-2.32,1.22-3.928,1.808c-1.611,0.583-3.502,1.102-5.669,1.548
		c-2.173,0.445-4.642,0.707-7.394,0.786l-2.42,2.285l-3.171-0.029l2.429-2.273c-3.832-0.162-6.279-0.783-7.344-1.86
		C30.021,42.026,30.458,40.475,32.388,38.427z"/>
	<path fill="#606C26" d="M87.119,60.5H-19.533v7.324H88.635c0.967,0,1.898-0.387,2.586-1.074l28.746-28.481V27.648L87.119,60.5z"/>
	<path fill="#606C26" d="M-19.533,74.53v7.322h111.83c0.969,0,1.898-0.385,2.586-1.072l25.084-24.974V45.342L90.783,74.53H-19.533z"
		/>
</g>
<g id="Your_Icon">
	<path fill="#D8704A" d="M44.89,82.32l19.821,20.29c1.986,2.054,3.281,2.074,5.307,0l3.977-4.072c1.947-1.994,2.08-3.302,0-5.433
		L53.012,71.627l20.982-21.481c1.969-2.018,2.006-3.381,0-5.435l-3.973-4.07c-2.064-2.112-3.34-2.014-5.311,0L44.89,60.932
		L25.069,40.641c-1.969-2.014-3.244-2.112-5.307,0l-3.975,4.07c-2.005,2.054-1.97,3.416,0,5.435l20.984,21.481L15.787,93.105
		c-2.08,2.131-1.97,3.438,0,5.433l3.975,4.072c2.007,2.074,3.3,2.054,5.307,0L44.89,82.32z"/>
</g>
</svg>
