<?xml version="1.0" encoding="utf-8"?>
<!-- Generator: Adobe Illustrator 16.0.0, SVG Export Plug-In . SVG Version: 6.00 Build 0)  -->
<!DOCTYPE svg PUBLIC "-//W3C//DTD SVG 1.1//EN" "http://www.w3.org/Graphics/SVG/1.1/DTD/svg11.dtd">
<svg version="1.1" id="Layer_1" xmlns="http://www.w3.org/2000/svg" xmlns:xlink="http://www.w3.org/1999/xlink" x="0px" y="0px"
	 width="150px" height="150px" viewBox="-1.25 -48.75 150 150" enable-background="new -1.25 -48.75 150 150" xml:space="preserve">
<g id="Layer_2">
</g>
<g id="Layer_1_1_">
	<g>
		<path d="M61.891-20.031C29.781-20.031,3.75,6,3.75,38.109c0,32.11,26.031,58.141,58.141,58.141s58.141-26.03,58.141-58.141
			C120.031,6,94-20.031,61.891-20.031z M61.891,90.436c-28.854,0-52.327-23.474-52.327-52.326s23.473-52.327,52.327-52.327
			c28.853,0,52.326,23.474,52.326,52.327S90.743,90.436,61.891,90.436z"/>
		<circle cx="29.913" cy="23.574" r="2.907"/>
		<circle cx="93.868" cy="23.574" r="2.907"/>
		<path d="M93.868,35.202c-1.606,0-2.907,1.302-2.907,2.907c0,16.029-13.041,29.07-29.07,29.07s-29.07-13.041-29.07-29.07
			c0-1.605-1.301-2.907-2.907-2.907c-1.605,0-2.907,1.302-2.907,2.907c0,19.236,15.649,34.885,34.884,34.885
			c19.236,0,34.885-15.648,34.885-34.885C96.775,36.504,95.474,35.202,93.868,35.202z"/>
	</g>
</g>
<path d="M96.815-16.839c-4.674-4.592-6.704-9.617-6.704-14.117c0-7.677,5.117-12.794,12.879-12.794c7.232,0,9.707,3.356,13.94,8.208
	c4.233-4.852,6.704-8.208,13.937-8.208c7.766,0,12.883,5.117,12.883,12.794c0,4.5-2.03,9.525-6.704,14.117L116.931,3.188
	L96.815-16.839z"/>
</svg>
