<?xml version="1.0" encoding="utf-8"?>
<!-- Generator: Adobe Illustrator 16.0.0, SVG Export Plug-In . SVG Version: 6.00 Build 0)  -->
<!DOCTYPE svg PUBLIC "-//W3C//DTD SVG 1.1//EN" "http://www.w3.org/Graphics/SVG/1.1/DTD/svg11.dtd">
<svg version="1.1" id="Layer_1" xmlns="http://www.w3.org/2000/svg" xmlns:xlink="http://www.w3.org/1999/xlink" x="0px" y="0px"
	 width="150px" height="150px" viewBox="-1.25 -48.75 150 150" enable-background="new -1.25 -48.75 150 150" xml:space="preserve">
<g id="Layer_2">
</g>
<g id="Layer_1_1_">
	<g>
		<path fill="#333333" d="M56.391-9.031C27.319-9.031,3.75,14.537,3.75,43.609S27.319,96.25,56.391,96.25
			c29.072,0,52.641-23.568,52.641-52.641S85.463-9.031,56.391-9.031z M56.391,90.985c-26.124,0-47.376-21.253-47.376-47.376
			S30.267-3.767,56.391-3.767c26.123,0,47.376,21.253,47.376,47.376S82.514,90.985,56.391,90.985z"/>
		<circle fill="#333333" cx="27.438" cy="30.449" r="2.632"/>
		<circle fill="#333333" cx="85.343" cy="30.449" r="2.632"/>
		<path fill="#333333" d="M85.343,40.977c-1.454,0-2.632,1.179-2.632,2.632c0,14.513-11.808,26.32-26.32,26.32
			c-14.513,0-26.32-11.808-26.32-26.32c0-1.454-1.178-2.632-2.632-2.632c-1.454,0-2.632,1.179-2.632,2.632
			c0,17.417,14.169,31.585,31.584,31.585c17.417,0,31.585-14.168,31.585-31.585C87.976,42.156,86.797,40.977,85.343,40.977z"/>
	</g>
</g>
<path fill="#D8704A" d="M96.815-16.839c-4.674-4.592-6.704-9.617-6.704-14.117c0-7.677,5.117-12.794,12.879-12.794
	c7.232,0,9.707,3.356,13.94,8.208c4.233-4.852,6.704-8.208,13.937-8.208c7.766,0,12.883,5.117,12.883,12.794
	c0,4.5-2.03,9.525-6.704,14.117L116.931,3.188L96.815-16.839z"/>
</svg>
